<svg width="108" height="108" viewBox="0 0 108 108" fill="none" xmlns="http://www.w3.org/2000/svg">
<g filter="url(#filter0_d)">
<path d="M95.6667 1.66667H12.3333C8.65168 1.66667 5.66666 4.6517 5.66666 8.33334V65H102.333V8.33334C102.333 4.6517 99.3483 1.66667 95.6667 1.66667ZM95.6667 58.3333H12.3333V8.33334H95.6667V58.3333Z" fill="#57A4FF"/>
<path d="M12.3333 58.3333H95.6667V8.33333H12.3333V58.3333ZM72.3333 20L69 36.6667C69 38.5075 70.4925 40 72.3333 40H82.3333H72.3333C70.4925 40 69 38.5075 69 36.6667L72.3333 20ZM45.6667 23.3333C45.6667 21.4925 47.1592 20 49 20H59C60.8408 20 62.3333 21.4925 62.3333 23.3333V43.3333C62.3333 45.1741 60.8408 46.6667 59 46.6667H49C47.1592 46.6667 45.6667 45.1741 45.6667 43.3333V23.3333ZM25.6667 20L22.3333 36.6667C22.3333 38.5075 23.8259 40 25.6667 40H35.6667H25.6667C23.8259 40 22.3333 38.5075 22.3333 36.6667L25.6667 20Z" fill="#F1F2F2"/>
<path d="M5.66666 75C5.66666 76.8408 7.15917 78.3333 8.99999 78.3333H99C100.841 78.3333 102.333 76.8408 102.333 75V65H5.66666V75Z" fill="#898890"/>
<path d="M45.6667 78.3333H62.3333V91.6667H45.6667V78.3333Z" fill="#57565C"/>
<path d="M37.3333 91.6667C35.4925 91.6667 34 93.1592 34 95C34 96.8408 35.4925 98.3333 37.3333 98.3333H70.6667C72.5075 98.3333 74 96.8408 74 95C74 93.1592 72.5075 91.6667 70.6667 91.6667H37.3333Z" fill="#57565C"/>
<path d="M49 20H59C60.8408 20 62.3333 21.4925 62.3333 23.3333V43.3333C62.3333 45.1742 60.8408 46.6667 59 46.6667H49C47.1592 46.6667 45.6667 45.1742 45.6667 43.3333V23.3333C45.6667 21.4925 47.1592 20 49 20Z" fill="#F1F2F2"/>
<path d="M95.6667 0H12.3333C7.73291 0.00569662 4.0057 3.73291 4 8.33333V75C4 77.7612 6.23877 80 9 80H44V90H37.3333C34.5721 90 32.3333 92.2388 32.3333 95C32.3333 97.7612 34.5721 100 37.3333 100H70.6667C73.4279 100 75.6667 97.7612 75.6667 95C75.6667 92.2388 73.4279 90 70.6667 90H64V80H99C101.761 80 104 77.7612 104 75V8.33333C103.994 3.73291 100.267 0.00569662 95.6667 0ZM7.33333 8.33333C7.33333 5.5721 9.5721 3.33333 12.3333 3.33333H95.6667C98.4279 3.33333 100.667 5.5721 100.667 8.33333V63.3333H7.33333V8.33333ZM72.3333 95C72.3333 95.9204 71.5871 96.6667 70.6667 96.6667H37.3333C36.4129 96.6667 35.6667 95.9204 35.6667 95C35.6667 94.0796 36.4129 93.3333 37.3333 93.3333H70.6667C71.5871 93.3333 72.3333 94.0796 72.3333 95ZM60.6667 90H47.3333V80H60.6667V90ZM100.667 75C100.667 75.9204 99.9204 76.6667 99 76.6667H9C8.07959 76.6667 7.33333 75.9204 7.33333 75V66.6667H100.667V75Z" fill="#231F20"/>
<path d="M95.6667 6.66667H12.3333C11.4129 6.66667 10.6667 7.41293 10.6667 8.33334V58.3333C10.6667 59.2538 11.4129 60 12.3333 60H95.6667C96.5871 60 97.3333 59.2538 97.3333 58.3333V8.33334C97.3333 7.41293 96.5871 6.66667 95.6667 6.66667ZM94 56.6667H14V10H94V56.6667Z" fill="#231F20"/>
<path d="M25.6667 41.6667H34V46.6667C34 47.5871 34.7462 48.3333 35.6667 48.3333C36.5871 48.3333 37.3333 47.5871 37.3333 46.6667V41.6667H40.6667C41.5871 41.6667 42.3333 40.9204 42.3333 40C42.3333 39.0796 41.5871 38.3333 40.6667 38.3333H37.3333V20C37.3333 19.0796 36.5871 18.3333 35.6667 18.3333C34.7462 18.3333 34 19.0796 34 20V38.3333H25.6667C24.7967 38.3366 24.0716 37.6701 24 36.8034L27.3 20.3337C27.4399 19.7404 27.2454 19.1187 26.7921 18.7109C26.3397 18.304 25.7008 18.1763 25.1255 18.3781C24.5509 18.5799 24.1318 19.0788 24.0334 19.6802L20.7 36.3468C20.6789 36.4518 20.6675 36.5592 20.6667 36.6667C20.6667 39.4279 22.9054 41.6667 25.6667 41.6667Z" fill="#231F20"/>
<path d="M49 48.3333H59C61.7612 48.3333 64 46.0946 64 43.3333V23.3333C64 20.5721 61.7612 18.3333 59 18.3333H49C46.2388 18.3333 44 20.5721 44 23.3333V43.3333C44 46.0946 46.2388 48.3333 49 48.3333ZM47.3333 23.3333C47.3333 22.4129 48.0796 21.6667 49 21.6667H59C59.9204 21.6667 60.6667 22.4129 60.6667 23.3333V43.3333C60.6667 44.2537 59.9204 45 59 45H49C48.0796 45 47.3333 44.2537 47.3333 43.3333V23.3333Z" fill="#231F20"/>
<path d="M72.3333 41.6667H80.6667V46.6667C80.6667 47.5871 81.4129 48.3333 82.3333 48.3333C83.2538 48.3333 84 47.5871 84 46.6667V41.6667H87.3333C88.2538 41.6667 89 40.9204 89 40C89 39.0796 88.2538 38.3333 87.3333 38.3333H84V20C84 19.0796 83.2538 18.3333 82.3333 18.3333C81.4129 18.3333 80.6667 19.0796 80.6667 20V38.3333H72.3333C71.4634 38.3366 70.7383 37.6701 70.6667 36.8034L73.9666 20.3337C74.1123 19.4474 73.5296 18.6051 72.6491 18.4285C71.7686 18.2528 70.9067 18.8061 70.7 19.6802L67.3667 36.3468C67.3456 36.4518 67.3342 36.5592 67.3333 36.6667C67.3333 39.4279 69.5721 41.6667 72.3333 41.6667V41.6667Z" fill="#231F20"/>
</g>
<defs>
<filter id="filter0_d" x="0" y="0" width="108" height="108" filterUnits="userSpaceOnUse" color-interpolation-filters="sRGB">
<feFlood flood-opacity="0" result="BackgroundImageFix"/>
<feColorMatrix in="SourceAlpha" type="matrix" values="0 0 0 0 0 0 0 0 0 0 0 0 0 0 0 0 0 0 127 0"/>
<feOffset dy="4"/>
<feGaussianBlur stdDeviation="2"/>
<feColorMatrix type="matrix" values="0 0 0 0 0 0 0 0 0 0 0 0 0 0 0 0 0 0 0.25 0"/>
<feBlend mode="normal" in2="BackgroundImageFix" result="effect1_dropShadow"/>
<feBlend mode="normal" in="SourceGraphic" in2="effect1_dropShadow" result="shape"/>
</filter>
</defs>
</svg>
