<svg width="30" height="30" viewBox="0 0 30 30" fill="none" xmlns="http://www.w3.org/2000/svg">
<g clip-path="url(#clip0)">
<rect width="30" height="30" fill="#DC4E41"/>
<path d="M15 29.999C23.2843 29.999 30 23.2833 30 14.999C30 6.71473 23.2843 -0.000999451 15 -0.000999451C6.71573 -0.000999451 0 6.71473 0 14.999C0 23.2833 6.71573 29.999 15 29.999Z" fill="white"/>
<path d="M5.2224 15.6719C5.16919 18.2527 6.94679 20.7156 9.39206 21.5189C11.6954 22.2927 14.5273 21.7138 16.0599 19.7413C17.179 18.3591 17.4333 16.5166 17.3121 14.7951C15.3396 14.7775 13.3671 14.7833 11.3975 14.7863C11.3943 15.489 11.3975 16.189 11.4004 16.8917C12.5815 16.9243 13.7628 16.9094 14.9439 16.9332C14.6457 17.9548 13.9666 18.9057 12.9358 19.2747C10.9456 20.1517 8.4062 19.006 7.77997 16.9182C7.02406 14.9189 8.26154 12.5063 10.3047 11.9247C11.5716 11.4789 12.8767 11.9808 13.9607 12.6394C14.5099 12.1255 15.0238 11.5763 15.5286 11.0212C14.297 9.99066 12.7144 9.35882 11.0873 9.49759C7.89495 9.53556 5.10127 12.4827 5.2224 15.6719Z" fill="#DC4E41"/>
<path d="M21.1511 13.0133C21.1452 13.601 21.139 14.1917 21.1361 14.7791C20.5454 14.785 19.958 14.788 19.3702 14.7909C19.3702 15.3786 19.3702 15.9631 19.3702 16.5509C19.958 16.5538 20.5486 16.5567 21.1361 16.5629C21.142 17.1506 21.142 17.7381 21.1478 18.3287C21.7326 18.3287 22.3203 18.3258 22.9078 18.3287C22.911 17.7381 22.9137 17.1506 22.9198 16.5599C23.5073 16.557 24.0979 16.5541 24.6857 16.5511C24.6857 15.9634 24.6857 15.3789 24.6857 14.7912C24.0982 14.7882 23.5076 14.7853 22.9198 14.7794C22.9166 14.1917 22.911 13.601 22.9078 13.0136C22.3203 13.0133 21.7356 13.0133 21.1511 13.0133Z" fill="#DC4E41"/>
<path d="M5.2224 15.6711C5.10127 12.482 7.89468 9.53483 11.087 9.49659C12.7141 9.35782 14.297 9.98966 15.5284 11.0202C15.0233 11.5755 14.5094 12.1245 13.9604 12.6384C12.8764 11.9798 11.5713 11.4779 10.3044 11.9237C8.26101 12.5055 7.02353 14.9182 7.77971 16.9172C8.40593 19.005 10.9453 20.1507 12.9355 19.2737C13.966 18.9047 14.6455 17.9539 14.9436 16.9322C13.7625 16.9086 12.5812 16.9233 11.4002 16.8907C11.3972 16.188 11.3943 15.488 11.3972 14.7853C13.3668 14.7823 15.3393 14.7765 17.3119 14.7941C17.433 16.5158 17.179 18.3584 16.0597 19.7403C14.527 21.7128 11.6954 22.2917 9.3918 21.5179C6.94706 20.7149 5.16919 18.252 5.2224 15.6711Z" fill="#DC4E41"/>
<path d="M21.1511 13.0133C21.7358 13.0133 22.3203 13.0133 22.9078 13.0133C22.911 13.601 22.9166 14.1917 22.9198 14.7791C23.5073 14.785 24.0979 14.788 24.6857 14.7909C24.6857 15.3786 24.6857 15.9631 24.6857 16.5509C24.0982 16.5538 23.5076 16.5567 22.9198 16.5597C22.9139 17.1503 22.911 17.7378 22.9078 18.3285C22.3203 18.3255 21.7324 18.3285 21.1478 18.3285C21.1422 17.7378 21.1422 17.1503 21.1361 16.5626C20.5486 16.5565 19.958 16.5538 19.3702 16.5506C19.3702 15.9629 19.3702 15.3784 19.3702 14.7906C19.958 14.7877 20.5457 14.7847 21.1361 14.7789C21.139 14.1917 21.1449 13.601 21.1511 13.0133Z" fill="#DC4E41"/>
</g>
<defs>
<clipPath id="clip0">
<rect width="30" height="30" fill="white"/>
</clipPath>
</defs>
</svg>
