<svg width="30" height="30" viewBox="0 0 30 30" fill="none" xmlns="http://www.w3.org/2000/svg">
<g clip-path="url(#clip0)">
<rect width="30" height="30" fill="#CB2027"/>
<path d="M15.0007 30C23.2849 30 30.0005 23.2844 30.0005 15.0003C30.0005 6.71614 23.2849 0.000534058 15.0007 0.000534058C6.71662 0.000534058 0.00100708 6.71614 0.00100708 15.0003C0.00100708 23.2844 6.71662 30 15.0007 30Z" fill="white"/>
<path d="M16.2107 20.0865C15.0767 19.9988 14.6003 19.4364 13.7109 18.8966C13.2222 21.4611 12.6248 23.9194 10.8555 25.2037C10.3087 21.3277 11.6571 18.4164 12.2834 15.3262C11.216 13.5294 12.4117 9.91274 14.6631 10.8039C17.434 11.8997 12.2641 17.4851 15.7348 18.1827C19.3581 18.911 20.8373 11.8957 18.5902 9.61381C15.3436 6.31936 9.13999 9.53894 9.90284 14.2551C10.0887 15.408 11.2801 15.758 10.3788 17.349C8.30094 16.8888 7.68114 15.25 7.76082 13.0652C7.88944 9.48894 10.9743 6.98488 14.0684 6.63835C17.9816 6.20038 21.6544 8.07528 22.1613 11.7561C22.7317 15.9104 20.3947 20.4095 16.2107 20.0865Z" fill="#CB2027"/>
</g>
<defs>
<clipPath id="clip0">
<rect width="30" height="30" fill="white"/>
</clipPath>
</defs>
</svg>
