<svg width="30" height="30" viewBox="0 0 30 30" fill="none" xmlns="http://www.w3.org/2000/svg">
<g clip-path="url(#clip0)">
<rect width="30" height="30" fill="#F44336"/>
<path d="M29.9712 10.2138C30.1 11.8575 29.8175 13.8275 28.7137 13.925C26.9112 14.0838 27.8512 12.1313 27.875 10.9563C27.9412 7.55002 24.985 5.18377 22.0887 5.18377C21.2687 5.18377 19.3625 5.73127 19.6562 4.02877C19.7887 3.27877 20.435 3.28877 21.0812 3.20377C25.9525 2.56627 29.6287 5.86002 29.9712 10.2138V10.2138Z" fill="#FF9800"/>
<path d="M22.005 14.1712C24.0987 15.2975 26.6137 15.8587 26.1975 19.2012C26.0975 20.0025 25.605 21.0725 25.1075 21.7562C21.5687 26.6287 10.8937 28.6762 4.22874 24.9737C1.99374 23.7312 -0.320013 21.9137 0.0362367 18.2937C0.343737 15.1775 2.47374 12.7637 4.56499 10.7075C6.55999 8.745 8.66249 7.21 11.5237 6.5025C14.6287 5.735 15.5462 8.28 14.71 10.79C16.5087 10.6712 20.32 8.6975 22.005 10.625C22.7475 11.475 22.4637 12.9962 22.005 14.1712ZM19.7412 22.0875C20.4125 21.34 21.0862 20.2 21.0825 18.8725C21.0737 14.775 15.8237 13.26 11.6925 13.595C9.43249 13.7775 7.91249 14.2462 6.32624 15.1625C5.03124 15.91 3.51624 17.1262 3.13999 18.955C2.29249 23.0687 6.84124 25.0025 10.1825 25.2225C14.0425 25.4762 17.9062 24.1362 19.7412 22.0875Z" fill="white"/>
<path d="M25.8612 10.2138C26.0375 11.4688 25.6712 12.5575 24.9387 12.605C23.7175 12.685 24.1737 11.7825 24.1 10.7088C24.0537 10.0475 23.4962 9.28376 23.01 9.05876C22.0562 8.61876 20.5787 9.37876 20.5787 8.07001C20.5787 7.0975 21.4362 7.19875 21.9212 7.1625C24.0437 7.00375 25.6137 8.44251 25.8612 10.2138V10.2138Z" fill="#FF9800"/>
<path d="M16.0525 18.46C17.8387 23.77 8.53124 26.2388 6.82875 21.6763C5.69 18.625 8.42499 16.1975 11.2725 15.9038C13.7037 15.6525 15.5162 16.8725 16.0525 18.46ZM11.775 19.3675C12.1537 20.0125 13.025 19.5488 12.9487 19.0375C12.8575 18.4463 11.7675 18.5338 11.775 19.3675ZM10.2662 22.1713C11.8312 21.805 12.0412 18.9063 9.67874 19.45C7.695 19.905 8.07875 22.6825 10.2662 22.1713Z" fill="#212121"/>
</g>
<defs>
<clipPath id="clip0">
<rect width="30" height="30" fill="white"/>
</clipPath>
</defs>
</svg>
