<svg width="30" height="30" viewBox="0 0 30 30" fill="none" xmlns="http://www.w3.org/2000/svg">
<g clip-path="url(#clip0)">
<path d="M29.1363 18.1838C31.3088 8.42125 22.7562 -0.447506 12.7125 1.255C7.26 -2.12876 0 1.695 0 8.1825C0 9.69125 0.41625 11.1038 1.14 12.3213C-0.87875 22.1063 7.74375 30.8475 17.7787 29.0288C18.9487 29.6475 20.2837 30 21.7025 30C27.8887 30 31.85 23.5838 29.1363 18.1838ZM15.12 24.8488C12.1925 24.8488 9.3325 24.1425 7.64 21.725C5.1175 18.1575 8.44375 16.3725 10.0762 17.7325C11.4387 18.8813 11.0113 21.66 15.0125 21.66C16.7763 21.66 18.9538 20.9075 18.9538 19.1588C18.9538 15.64 11.1475 17.305 8.04375 13.4688C6.90375 12.0638 6.68875 9.585 8.08875 7.7875C10.5288 4.6475 17.6888 4.45625 20.7675 6.8275C23.61 9.0275 22.8425 11.9475 20.5487 11.9475C17.79 11.9475 19.24 8.3375 14.7863 8.3375C11.5575 8.3375 10.2875 10.6338 12.5612 11.7513C15.5875 13.2538 23.4987 12.785 23.4987 18.755C23.4887 22.9513 19.44 24.8488 15.12 24.8488V24.8488Z" fill="#03A9F4"/>
</g>
<defs>
<clipPath id="clip0">
<rect width="30" height="30" fill="white"/>
</clipPath>
</defs>
</svg>
