<svg width="50" height="50" viewBox="0 0 50 50" fill="none" xmlns="http://www.w3.org/2000/svg">
<path d="M25 50C38.8071 50 50 38.8071 50 25C50 11.1929 38.8071 0 25 0C11.1929 0 0 11.1929 0 25C0 38.8071 11.1929 50 25 50Z" fill="#FD8469"/>
<path d="M25.1181 35.7086C25.0787 35.7086 25.0394 35.748 25 35.748C24.9606 35.748 24.9213 35.7086 24.8819 35.7086H25.1181Z" fill="#84DBFF"/>
<path d="M44.4095 40.748C39.8425 46.3779 32.8347 50 25 50C17.1654 50 10.1575 46.3779 5.59055 40.748C8.85826 36.3779 13.8583 34.2126 17.9528 33.1496C17.6378 35.748 18.9764 39.2126 19.0157 39.1339C20.3937 35.9842 25 35.7087 25 35.7087C25 35.7087 29.6063 35.9842 30.9449 39.1339C30.9843 39.2126 32.3622 35.748 32.0079 33.1496C36.1417 34.2126 41.1811 36.3779 44.4095 40.748Z" fill="#84DBFF"/>
<path d="M30.6299 30.7087C30.6299 30.7087 30.6299 30.7087 30.6299 30.748C30.6299 31.1417 30.4331 33.6614 25.1181 35.6693H24.8819C19.5669 33.6614 19.3701 31.1417 19.3701 30.748C19.3701 30.7087 19.3701 30.7087 19.3701 30.7087C19.3701 30.1968 19.4882 29.685 19.6063 29.1732C21.1417 31.1024 22.9921 32.4016 25 32.4016C27.0079 32.4016 28.8583 31.1024 30.3937 29.1732C30.5118 29.685 30.6299 30.1968 30.6299 30.7087Z" fill="white"/>
<path d="M30.6299 30.7086C30.6299 30.7086 30.9055 33.5433 25 35.748C25 35.748 29.6063 36.0236 30.9449 39.1732C31.0236 39.252 33.6614 32.4016 30.6299 30.7086Z" fill="#54C0EB"/>
<path d="M19.3701 30.7086C16.3386 32.4016 18.9764 39.252 19.0551 39.1338C20.4331 35.9842 25 35.7086 25 35.7086C19.0945 33.5433 19.3701 30.7086 19.3701 30.7086Z" fill="#54C0EB"/>
<path d="M33.2677 20.748C32.9134 23.189 31.8504 25.4724 30.0787 27.2047C29.7244 27.5591 29.4094 27.8347 29.0157 28.1102L28.3858 26.1024H21.6142L20.9842 28.1102C19.7244 27.1654 17.0866 24.5276 17.0472 22.0473C15.9449 7.91339 26.7716 10.9055 26.7716 10.9055C34.0551 10.3937 33.8189 16.811 33.2677 20.748Z" fill="white"/>
<path d="M34.7244 23.3071C34.1732 24.2126 33.4252 24.8425 32.7166 25.0787C32.9921 24.4488 33.2284 23.7795 33.4252 23.1102C33.4252 23.1102 33.4252 23.1102 33.4252 23.0709C33.5827 22.4803 33.7402 21.8898 33.8977 21.2992H33.8583C34.0158 20.7087 34.1732 20.1181 34.2913 19.5276C34.4488 19.5276 34.6063 19.6063 34.7638 19.685C35.6299 20.2362 35.5906 21.8504 34.7244 23.3071Z" fill="white"/>
<path d="M17.2835 25.0787C16.5748 24.8425 15.8268 24.2126 15.2756 23.3071C14.3701 21.8504 14.3701 20.2362 15.2362 19.7244C15.315 19.685 15.3543 19.6457 15.4331 19.6457C15.9055 21.4961 16.4567 22.874 16.5748 23.1496C16.7717 23.7795 17.0079 24.4488 17.2835 25.0787Z" fill="white"/>
<path d="M29.2913 6.9685C29.6063 3.34645 23.8582 3.58267 23.8582 3.58267C15.1575 4.84252 14.2126 12.9528 14.2126 12.9528L15.3937 11.5354C13.5433 15.5905 16.3386 22.5591 16.5748 23.1102C18.0315 27.9528 21.2598 32.4016 25 32.4016C28.7401 32.4016 31.9685 27.9528 33.4252 23.1102C33.4252 23.1102 33.4252 23.1102 33.4252 23.0709C33.5827 22.4803 33.7401 21.8898 33.8582 21.2992H33.8189C34.6063 18.1496 35.4724 14.9606 35.4724 14.9606C37.7165 3.66141 29.2913 6.9685 29.2913 6.9685ZM33.2677 20.748C32.9134 23.189 31.8504 25.4724 30.0787 27.2047C29.7244 27.5591 29.3701 27.8346 29.0157 28.1102L28.3858 26.1417H21.6142L20.9842 28.1496C19.7244 27.2047 18.6614 25.9055 17.7953 24.4094C17.4016 23.622 17.1653 22.7953 17.0472 22.0866C15.9449 7.95275 26.7716 10.9449 26.7716 10.9449C34.0551 10.3937 33.8189 16.811 33.2677 20.748Z" fill="#324A5E"/>
<path d="M29.2913 6.9685C29.6063 3.34645 23.8582 3.58267 23.8582 3.58267C15.1575 4.84252 14.2126 12.9528 14.2126 12.9528L15.3937 11.5354C13.5433 15.5905 16.3386 22.5591 16.5748 23.1102C18.0315 27.9528 21.2598 32.4016 25 32.4016C28.7401 32.4016 31.9685 27.9528 33.4252 23.1102C33.4252 23.1102 33.4252 23.1102 33.4252 23.0709C33.5827 22.4803 33.7401 21.8898 33.8582 21.2992H33.8189C34.6063 18.1496 35.4724 14.9606 35.4724 14.9606C37.7165 3.66141 29.2913 6.9685 29.2913 6.9685ZM33.2677 20.748C32.9134 23.189 31.8504 25.4724 30.0787 27.2047C29.7244 27.5591 29.3701 27.8346 29.0157 28.1102L28.3858 26.1417H21.6142L20.9842 28.1496C19.7244 27.2047 18.6614 25.9055 17.7953 24.4094C17.4016 23.622 17.1653 22.7953 17.0472 22.0866C15.9449 7.95275 26.7716 10.9449 26.7716 10.9449C34.0551 10.3937 33.8189 16.811 33.2677 20.748Z" fill="#324A5E"/>
<path d="M29.2913 6.9685C29.6063 3.34645 23.8582 3.58267 23.8582 3.58267C15.1575 4.84252 14.2126 12.9528 14.2126 12.9528L15.3937 11.5354C13.5433 15.5905 16.3386 22.5591 16.5748 23.1102C18.0315 27.9528 21.2598 32.4016 25 32.4016C28.7401 32.4016 31.9685 27.9528 33.4252 23.1102C33.4252 23.1102 33.4252 23.1102 33.4252 23.0709C33.5827 22.4803 33.7401 21.8898 33.8582 21.2992H33.8189C34.6063 18.1496 35.4724 14.9606 35.4724 14.9606C37.7165 3.66141 29.2913 6.9685 29.2913 6.9685ZM33.2677 20.748C32.9134 23.189 31.8504 25.4724 30.0787 27.2047C29.7244 27.5591 29.3701 27.8346 29.0157 28.1102L28.3858 26.1417H21.6142L20.9842 28.1496C19.7244 27.2047 17.0866 24.5669 17.0472 22.0866C15.9449 7.95275 26.7716 10.9449 26.7716 10.9449C34.0551 10.3937 33.8189 16.811 33.2677 20.748Z" fill="#324A5E"/>
<path d="M22.2441 27.4803C22.9134 28.2283 23.8976 28.7402 25 28.7402C26.1023 28.7402 27.0866 28.2677 27.7559 27.4803H22.2441Z" fill="white"/>
</svg>
